<?xml version="1.0" encoding="UTF-8" standalone="no"?>
<svg
   xmlns:dc="http://purl.org/dc/elements/1.1/"
   xmlns:cc="http://creativecommons.org/ns#"
   xmlns:rdf="http://www.w3.org/1999/02/22-rdf-syntax-ns#"
   xmlns:svg="http://www.w3.org/2000/svg"
   xmlns="http://www.w3.org/2000/svg"
   width="100%"
   height="100%"
   viewBox="0 0 64 64"
   version="1.1"
   xml:space="preserve"
   style="fill-rule:evenodd;clip-rule:evenodd;stroke-linecap:round;stroke-linejoin:round;stroke-miterlimit:2;"
   id="svg15">
  <metadata
   id="metadata21">
    <rdf:RDF>
      <cc:Work
   rdf:about="">
        <dc:format>image/svg+xml</dc:format>

        <dc:type
   rdf:resource="http://purl.org/dc/dcmitype/StillImage" />

      </cc:Work>

    </rdf:RDF>

  </metadata>

  <defs
   id="defs19" />

  
  <path
   d="M25,29c0,-3.863 3.137,-7 7,-7c3.863,0 7,3.137 7,7c0,-3.863 3.137,-7 7,-7c3.863,0 7,3.137 7,7c0,-11.59 -9.41,-21 -21,-21c-11.59,0 -21,9.41 -21,21c0,-3.863 3.137,-7 7,-7c3.863,0 7,3.137 7,7"
   style="fill:none;stroke:#004a99;stroke-width:2px;"
   id="path3" />

  <path
   d="M40,41c0,-1.657 -1.343,-3 -3,-3c-2.859,0 -7.141,0 -10,0c-1.657,0 -3,1.343 -3,3c0,2.02 0,4.728 0,7.051c0,2.953 1.732,5.631 4.425,6.841c1.849,0.832 3.575,1.608 3.575,1.608c0,0 1.726,-0.776 3.575,-1.608c2.693,-1.21 4.425,-3.888 4.425,-6.841c0,-2.323 0,-5.031 0,-7.051Z"
   style="fill:none;stroke:#f6941c;stroke-width:2px;"
   id="path5" />

  <path
   d="M28.75,46.748l2.5,2l4,-3.5"
   style="fill:none;stroke:#f6941c;stroke-width:2px;"
   id="path7" />

  <path
   d="M32,22l0,13"
   style="fill:none;stroke:#004a99;stroke-width:2px;"
   id="path9" />

  <path
   d="M25,26.5c0,0 -2.082,-9.418 7,-18.5"
   style="fill:none;stroke:#004a99;stroke-width:2px;"
   id="path11" />

  <path
   d="M38.897,26.5c0,0 1.385,-6.263 -3.03,-13.5"
   style="fill:none;stroke:#004a99;stroke-width:2px;"
   id="path13" />

</svg>
